<?xml version="1.0" standalone="no"?>
<!DOCTYPE svg PUBLIC "-//W3C//DTD SVG 20010904//EN"
 "http://www.w3.org/TR/2001/REC-SVG-20010904/DTD/svg10.dtd">
<svg version="1.0" xmlns="http://www.w3.org/2000/svg"
 width="640.000000pt" height="640.000000pt" viewBox="0 0 640.000000 640.000000"
 preserveAspectRatio="xMidYMid meet">
<metadata>
Created by potrace 1.11, written by Peter Selinger 2001-2013
</metadata>
<g transform="translate(0.000000,640.000000) scale(0.100000,-0.100000)"
fill="#000000" stroke="none">
<path d="M3068 5554 c-2 -1 -37 -5 -78 -8 -81 -6 -127 -12 -205 -26 -27 -5
-61 -12 -75 -14 -40 -7 -181 -45 -235 -64 -27 -9 -52 -17 -55 -17 -3 -1 -18
-7 -33 -13 -16 -7 -32 -12 -36 -12 -4 0 -26 -9 -49 -20 -22 -11 -48 -20 -56
-20 -8 0 -16 -3 -18 -7 -2 -7 -91 -54 -108 -58 -20 -5 -80 -40 -80 -47 0 -4
-8 -8 -18 -8 -11 0 -27 -9 -37 -20 -10 -11 -22 -20 -27 -20 -7 0 -108 -66
-143 -92 -108 -85 -141 -111 -143 -119 -2 -5 -8 -9 -14 -9 -10 0 -171 -159
-238 -235 -20 -22 -60 -71 -89 -110 -29 -38 -59 -78 -67 -88 -8 -9 -14 -21
-14 -26 0 -4 -9 -16 -20 -26 -11 -10 -17 -21 -15 -25 3 -5 1 -10 -3 -12 -11
-4 -97 -151 -95 -160 2 -3 -4 -12 -12 -18 -8 -7 -15 -16 -15 -21 0 -4 -14 -38
-31 -76 -53 -117 -56 -126 -88 -215 -17 -49 -28 -88 -24 -88 3 0 1 -6 -4 -12
-8 -11 -23 -59 -39 -130 -1 -5 -2 -9 -4 -10 -2 -3 -7 -28 -14 -83 -3 -22 -9
-51 -12 -65 -3 -14 -8 -43 -10 -65 -2 -22 -7 -65 -10 -95 -15 -120 -8 -443 11
-535 2 -11 6 -38 9 -60 15 -116 41 -219 98 -385 22 -63 40 -120 41 -125 4 -17
139 -288 157 -315 10 -14 46 -68 80 -120 34 -52 68 -99 74 -105 7 -5 17 -17
22 -27 27 -49 232 -262 334 -348 220 -184 500 -343 755 -428 129 -43 300 -85
400 -98 22 -3 52 -9 68 -14 17 -6 27 -5 27 1 0 6 5 7 11 3 40 -24 411 -24 559
0 14 3 48 7 75 11 49 6 103 17 198 41 24 6 24 6 87 23 64 18 244 82 250 90 3
3 14 7 24 9 43 8 375 193 384 214 2 4 8 8 13 8 6 0 15 5 22 10 7 6 39 31 72
56 154 117 303 263 427 420 65 81 188 267 188 282 0 6 4 12 8 14 11 4 126 241
142 293 7 22 16 45 20 50 6 9 51 144 56 170 1 6 10 39 19 75 9 36 19 76 21 90
2 14 6 34 9 46 3 12 7 39 10 60 3 21 7 53 10 69 14 95 19 176 18 305 -1 174
-8 254 -38 435 -18 111 -90 358 -132 455 -51 115 -129 267 -177 344 -31 48
-56 92 -56 97 0 5 -4 9 -8 9 -4 0 -16 13 -25 30 -10 16 -23 35 -30 42 -7 8
-28 34 -47 58 -69 90 -220 245 -320 330 -75 63 -221 168 -315 225 -87 53 -296
155 -360 175 -22 7 -49 17 -60 21 -43 19 -194 64 -250 75 -11 2 -56 11 -100
20 -44 8 -98 17 -120 20 -22 2 -62 6 -90 9 -51 6 -353 14 -357 9z"/>
</g>
</svg>
